<svg xmlns="http://www.w3.org/2000/svg" viewBox="0 0 102.6 500.45">
  <defs>
    <style>
      .a {
        fill: #1d1d1b;
      }
    </style>
  </defs>
  <path class="a" d="M87.64,57.35c7.3-3,15-12.21,15-25.26C102.6,15,88,0,57.23,0,33.88,0,18.68,12.09,18.68,30.53c0,20,14.25,29.93,27.17,29.93,16,0,26.82-9.7,26.82-24.3,0-10.54-4.78-16.17-10.41-19.28,1.2-.12,2.27-.12,2.63-.12,17.48,0,25.26,6,25.26,14.85a12.46,12.46,0,0,1-8.86,11.73ZM60.82,30.41c0,6.94-6.1,11.85-15.2,11.85-8.26,0-15-3.95-15-11.73,0-7.42,7.06-11.61,15.09-11.61,8.38,0,15.08,4.67,15.08,11.49M75.19,96c0,8-6.11,13.29-13.65,13.29S48.13,104.4,48.13,96A13,13,0,0,1,61.54,82.85c8,0,13.65,5.63,13.65,13.17M27.3,107c-6.47,0-11.5-4-11.5-11,0-6.59,4.91-11,11.5-11a11,11,0,1,1,0,22m15.56,2.39c2.28,10.77,9.46,16.76,19.64,16.76,17.6,0,25.74-14.84,25.74-30.17S80.1,65.85,62.5,65.85c-10.66,0-17.36,6.82-19.64,16.88-2.27-7.9-8.5-14-16.64-14C11.61,68.72,4.31,82.61,4.31,96c0,14.13,7.06,27.3,21.91,27.3,8.14,0,14.25-6.35,16.64-13.89m32.81,80.45c0,8.74-7.91,12.81-19.4,12.81s-19.39-4.07-19.39-12.45,8-12.45,19.39-12.45,19.4,4,19.4,12.09m12.57.36c0-19.28-13.89-29.45-32-29.45S24.42,171,24.42,190.24c0,19,13.77,29.45,31.85,29.45s32-9.81,32-29.45m-1.92,39.63H26.22v16.28h60.1Zm-70.52,0H2.51v16.28H15.8ZM56.63,275.6c9.7,0,18,3.48,18,11.38,0,7.3-7.42,12-19,12-10.53,0-17.84-3.83-17.84-11.73,0-8.26,8.14-11.62,16.41-11.62Zm29.69-1V259.2H1.8v16.4h32c-5,2.4-9.22,8-9.22,16.41,0,12.33,9.22,23.94,31.25,23.94,20,0,31.85-9.58,31.85-24.06,0-8.38-4.07-14-11-17.24Zm-22,105.59c15.09,0,23.47-6.58,23.47-20.35,0-10.3-4.79-15.32-11.61-18.44H86.32V326.13H26.22v16.28H56.15c11.61,0,17.72,4.43,17.72,12.09,0,6.35-4.43,9.46-13.41,9.46H26.22v16.28Zm6.11,39.27c10.3,0,17.84-3.59,17.84-17.24A30.65,30.65,0,0,0,86,390.06l-11.49,1.2a14,14,0,0,1,1.2,5.74c0,5-2.64,6.35-7.43,6.35H36.76V390.66H26.22v12.69H9v10.18c9.94,1.79,17.24,2.87,17.24,13.88v1.92H36.76v-9.82Zm4.43,80.94c7.66-5.87,13.41-17.36,13.41-34.36,0-17.84-9.46-32.93-26.82-32.93-13.05,0-20.23,7.42-26,29.33-3,11.26-6.11,16.53-11.85,16.53-5.27,0-9.1-3.84-9.1-12.93a27.72,27.72,0,0,1,9.22-20.84l-10.9-11.61C4.19,441.06,0,452.92,0,465.37c0,20.11,11.49,31.84,26,31.84,12.81,0,20.12-8.38,24.3-24.3,3.48-13.41,5.75-21.79,13.3-21.79,6.22,0,10,5.87,10,14.49,0,11-5.39,19.51-10.65,23.1Z"/>
</svg>
